<?xml version="1.0" standalone="no"?>
<!DOCTYPE svg PUBLIC "-//W3C//DTD SVG 20010904//EN"
 "http://www.w3.org/TR/2001/REC-SVG-20010904/DTD/svg10.dtd">
<svg version="1.0" xmlns="http://www.w3.org/2000/svg"
 width="88.000000pt" height="88.000000pt" viewBox="0 0 88.000000 88.000000"
 preserveAspectRatio="xMidYMid meet">
<metadata>
Created by potrace 1.11, written by Peter Selinger 2001-2013
</metadata>
<g transform="translate(0.000000,88.000000) scale(0.100000,-0.100000)"
fill="#000000" stroke="none">
<path d="M311 858 c-35 -11 -82 -31 -105 -45 -90 -57 -168 -167 -194 -273 -12
-50 -9 -179 6 -225 35 -110 122 -215 222 -265 73 -37 113 -45 215 -44 235 1
421 192 423 433 0 78 -39 221 -60 221 -4 0 -8 6 -8 14 0 21 -105 123 -152 147
-115 59 -238 72 -347 37z"/>
</g>
</svg>
