<?xml version="1.0" encoding="utf-8"?>
<!-- Generator: Adobe Illustrator 17.1.0, SVG Export Plug-In . SVG Version: 6.00 Build 0)  -->
<!DOCTYPE svg PUBLIC "-//W3C//DTD SVG 1.1//EN" "http://www.w3.org/Graphics/SVG/1.1/DTD/svg11.dtd">
<svg version="1.1" id="Layer_1" xmlns="http://www.w3.org/2000/svg" xmlns:xlink="http://www.w3.org/1999/xlink" x="0px" y="0px"
	 viewBox="0 0 25 20" enable-background="new 0 0 25 20" xml:space="preserve">
<path fill="#5F6062" d="M25,2c0,1.105-0.928,2-2.073,2H2.073C0.928,4,0,3.105,0,2l0,0c0-1.105,0.928-2,2.073-2h20.855
	C24.072,0,25,0.895,25,2L25,2z"/>
<path fill="#5F6062" d="M25,10c0,1.105-0.928,2-2.073,2H2.073C0.928,12,0,11.105,0,10l0,0c0-1.105,0.928-2,2.073-2h20.855
	C24.072,8,25,8.895,25,10L25,10z"/>
<path fill="#5F6062" d="M25,18c0,1.105-0.928,2-2.073,2H2.073C0.928,20,0,19.105,0,18l0,0c0-1.105,0.928-2,2.073-2h20.855
	C24.072,16,25,16.895,25,18L25,18z"/>
</svg>
