<svg width="18" height="16" viewBox="0 0 18 16" fill="none" xmlns="http://www.w3.org/2000/svg">
<path d="M12.7974 5.51053L9.33947 0.331579C9.18947 0.110526 8.93684 -1.5058e-08 8.68421 -1.5058e-08C8.43158 -1.5058e-08 8.17895 0.110526 8.02895 0.339474L4.57105 5.51053H0.789474C0.355263 5.51053 0 5.86579 0 6.3C0 6.37105 0.00789471 6.44211 0.0315789 6.51316L2.03684 13.8316C2.21842 14.4947 2.82632 14.9842 3.55263 14.9842H13.8158C14.5421 14.9842 15.15 14.4947 15.3395 13.8316L17.3447 6.51316L17.3684 6.3C17.3684 5.86579 17.0132 5.51053 16.5789 5.51053H12.7974ZM6.31579 5.51053L8.68421 2.03684L11.0526 5.51053H6.31579ZM8.68421 11.8263C7.81579 11.8263 7.10526 11.1158 7.10526 10.2474C7.10526 9.37895 7.81579 8.66842 8.68421 8.66842C9.55263 8.66842 10.2632 9.37895 10.2632 10.2474C10.2632 11.1158 9.55263 11.8263 8.68421 11.8263Z" transform="translate(0.315796 0.121033)" fill="white"/>
</svg>
